<?xml version="1.0" standalone="no"?>
<!DOCTYPE svg PUBLIC "-//W3C//DTD SVG 20010904//EN"
 "http://www.w3.org/TR/2001/REC-SVG-20010904/DTD/svg10.dtd">
<svg version="1.0" xmlns="http://www.w3.org/2000/svg"
 width="512.000000pt" height="512.000000pt" viewBox="0 0 512.000000 512.000000"
 preserveAspectRatio="xMidYMid meet">

<g transform="translate(0.000000,512.000000) scale(0.100000,-0.100000)"
fill="#000000" stroke="none">
<path d="M2075 5103 c-345 -29 -667 -176 -905 -413 -228 -226 -361 -481 -415
-794 -12 -69 -15 -173 -15 -478 l0 -389 -360 -936 c-240 -623 -360 -948 -360
-973 0 -113 173 -308 413 -468 491 -325 1148 -533 1842 -582 821 -58 1754 171
2364 581 194 130 302 232 376 355 64 107 88 25 -312 1061 l-358 928 -6 425
c-5 388 -7 434 -27 527 -61 280 -183 510 -379 713 -246 255 -550 404 -897 439
-98 10 -855 13 -961 4z m35 -1560 c107 -33 212 -80 296 -134 76 -48 82 -50
139 -47 48 3 70 10 107 36 81 55 228 121 332 147 80 20 123 25 228 25 395 0
654 -170 848 -560 56 -111 730 -1843 730 -1875 0 -13 -11 -36 -24 -52 -30 -35
-95 -39 -125 -8 -11 11 -171 409 -356 885 -185 476 -354 903 -376 949 -94 200
-220 344 -363 412 -104 50 -194 69 -332 69 -170 0 -308 -42 -459 -140 -82 -53
-135 -70 -219 -70 -86 1 -123 13 -229 78 -157 96 -278 132 -448 132 -321 0
-527 -140 -684 -464 -29 -61 -204 -497 -387 -969 -183 -472 -341 -867 -351
-878 -53 -57 -149 -16 -149 63 -1 31 649 1702 717 1844 159 335 369 514 670
573 86 17 360 6 435 -16z m7 -458 c119 -45 191 -123 227 -244 12 -40 16 -96
16 -206 0 -173 -4 -183 -77 -212 -44 -16 -85 -18 -465 -18 l-416 0 -43 30
c-23 17 -50 46 -60 65 -42 78 -8 259 71 377 64 97 198 182 349 224 53 15 92
18 196 16 113 -3 140 -8 202 -32z m1292 0 c100 -34 210 -104 268 -169 74 -85
133 -264 118 -363 -9 -61 -69 -125 -134 -143 -30 -8 -160 -10 -439 -8 -417 4
-431 5 -479 50 -22 21 -23 28 -23 190 0 142 3 177 20 224 31 89 88 157 163
194 105 51 148 60 292 56 112 -2 142 -7 214 -31z m-787 -875 c56 -16 117 -68
152 -130 31 -55 31 -56 34 -227 l4 -173 -271 0 -271 0 0 168 c0 155 2 171 24
217 58 123 192 182 328 145z m-172 -1070 l0 -360 -135 0 -135 0 0 360 0 360
135 0 135 0 0 -360z m450 0 l0 -360 -135 0 -135 0 0 360 0 360 135 0 135 0 0
-360z m-900 -90 l0 -270 -90 0 -90 0 0 182 0 183 87 87 c48 49 89 88 90 88 2
0 3 -121 3 -270z m1260 -87 l0 -183 -90 0 -90 0 0 272 0 273 90 -90 90 -90 0
-182z m-1757 -57 c103 -44 117 -180 24 -236 -70 -43 -167 -12 -195 62 -26 68
6 145 72 174 40 17 59 17 99 0z m2174 -5 c50 -23 73 -63 73 -127 0 -41 -5 -51
-39 -85 -34 -34 -44 -39 -86 -39 -61 0 -100 24 -126 77 -15 31 -18 51 -13 78
7 42 61 101 96 108 42 8 53 7 95 -12z"/>
</g>
</svg>
